<svg xmlns="http://www.w3.org/2000/svg" xmlns:xlink="http://www.w3.org/1999/xlink" width="1080" zoomAndPan="magnify" viewBox="0 0 810 809.999993" height="1080" preserveAspectRatio="xMidYMid meet" version="1.0"><defs><clipPath id="0e56f71a8a"><path d="M 103.367188 103.367188 L 706.632812 103.367188 L 706.632812 706.632812 L 103.367188 706.632812 Z M 103.367188 103.367188 " clip-rule="nonzero"/></clipPath><clipPath id="4944f0b56c"><path d="M 405 103.367188 C 238.414062 103.367188 103.367188 238.414062 103.367188 405 C 103.367188 571.585938 238.414062 706.632812 405 706.632812 C 571.585938 706.632812 706.632812 571.585938 706.632812 405 C 706.632812 238.414062 571.585938 103.367188 405 103.367188 Z M 405 103.367188 " clip-rule="nonzero"/></clipPath><clipPath id="2ea1f1f93c"><path d="M 132.125 260.035156 L 678 260.035156 L 678 550 L 132.125 550 Z M 132.125 260.035156 " clip-rule="nonzero"/></clipPath></defs><g clip-path="url(#0e56f71a8a)"><g clip-path="url(#4944f0b56c)"><path fill="#222222" d="M 103.367188 103.367188 L 706.632812 103.367188 L 706.632812 706.632812 L 103.367188 706.632812 Z M 103.367188 103.367188 " fill-opacity="1" fill-rule="nonzero"/></g></g><g clip-path="url(#2ea1f1f93c)"><path fill="#ffffff" d="M 652.285156 366.625 L 635.230469 366.625 C 634.804688 366.625 634.378906 366.625 633.949219 366.625 C 629.261719 338.484375 609.222656 315.460938 582.789062 306.507812 L 535.460938 279.222656 C 514.570312 266.859375 490.695312 260.035156 465.964844 260.035156 L 344.027344 260.035156 C 319.726562 260.035156 295.425781 266.859375 274.53125 279.222656 C 274.53125 279.222656 274.105469 279.648438 274.105469 279.648438 L 237.015625 303.949219 C 205.890625 309.917969 181.585938 335.074219 176.042969 366.625 C 175.617188 366.625 175.191406 366.625 174.765625 366.625 L 157.710938 366.625 C 143.640625 366.625 132.128906 378.136719 132.128906 392.207031 L 132.128906 460.421875 C 132.128906 474.492188 143.640625 486.003906 157.710938 486.003906 L 174.765625 486.003906 C 175.191406 486.003906 175.617188 486.003906 176.042969 486.003906 C 182.015625 522.246094 213.5625 549.957031 251.511719 549.957031 L 356.820312 549.957031 C 364.066406 549.957031 370.464844 545.269531 373.019531 538.445312 L 381.121094 515.847656 L 429.300781 515.847656 L 437.402344 538.445312 C 439.960938 545.269531 446.355469 549.957031 453.601562 549.957031 L 558.484375 549.957031 C 596.429688 549.957031 627.980469 522.246094 633.949219 486.003906 C 634.378906 486.003906 634.804688 486.003906 635.230469 486.003906 L 652.285156 486.003906 C 666.355469 486.003906 677.867188 474.492188 677.867188 460.421875 L 677.867188 392.207031 C 677.867188 378.136719 666.355469 366.625 652.285156 366.625 Z M 174.765625 468.949219 L 157.710938 468.949219 C 153.023438 468.949219 149.183594 465.113281 149.183594 460.421875 L 149.183594 392.207031 C 149.183594 387.515625 153.023438 383.679688 157.710938 383.679688 L 174.765625 383.679688 Z M 283.058594 293.71875 C 301.394531 282.632812 322.285156 277.089844 343.601562 277.089844 L 465.964844 277.089844 C 487.285156 277.089844 508.175781 283.058594 526.507812 293.71875 L 541.429688 302.671875 L 269.84375 302.671875 Z M 618.175781 473.214844 C 618.175781 506.042969 591.316406 532.902344 558.484375 532.902344 L 453.175781 532.902344 L 441.238281 498.796875 L 368.757812 498.796875 L 356.820312 532.902344 L 251.511719 532.902344 C 218.679688 532.902344 191.820312 506.042969 191.820312 473.214844 L 191.820312 379.414062 C 191.820312 346.585938 218.679688 319.726562 251.511719 319.726562 L 558.484375 319.726562 C 591.316406 319.726562 618.175781 346.585938 618.175781 379.414062 Z M 660.8125 460.421875 C 660.8125 465.113281 656.972656 468.949219 652.285156 468.949219 L 635.230469 468.949219 L 635.230469 383.679688 L 652.285156 383.679688 C 656.972656 383.679688 660.8125 387.515625 660.8125 392.207031 Z M 660.8125 460.421875 " fill-opacity="1" fill-rule="nonzero"/></g></svg>