<svg xmlns="http://www.w3.org/2000/svg" xmlns:xlink="http://www.w3.org/1999/xlink" width="500" zoomAndPan="magnify" viewBox="0 0 375 374.999991" height="500" preserveAspectRatio="xMidYMid meet" version="1.0"><defs><g/><clipPath id="1f548cf108"><path d="M 42.917969 148.757812 L 191.417969 148.757812 L 191.417969 227.507812 L 42.917969 227.507812 Z M 42.917969 148.757812 " clip-rule="nonzero"/></clipPath></defs><g clip-path="url(#1f548cf108)"><path fill="#000000" d="M 184.457031 177.710938 L 179.816406 177.710938 C 179.699219 177.710938 179.582031 177.710938 179.46875 177.710938 C 178.191406 170.070312 172.738281 163.816406 165.546875 161.382812 L 152.667969 153.972656 C 146.984375 150.613281 140.484375 148.761719 133.757812 148.761719 L 100.578125 148.761719 C 93.964844 148.761719 87.351562 150.613281 81.667969 153.972656 C 81.667969 153.972656 81.550781 154.089844 81.550781 154.089844 L 71.457031 160.691406 C 62.988281 162.3125 56.375 169.144531 54.867188 177.710938 C 54.75 177.710938 54.632812 177.710938 54.519531 177.710938 L 49.878906 177.710938 C 46.050781 177.710938 42.917969 180.839844 42.917969 184.660156 L 42.917969 203.1875 C 42.917969 207.011719 46.050781 210.136719 49.878906 210.136719 L 54.519531 210.136719 C 54.632812 210.136719 54.75 210.136719 54.867188 210.136719 C 56.492188 219.980469 65.074219 227.507812 75.402344 227.507812 L 104.058594 227.507812 C 106.03125 227.507812 107.769531 226.234375 108.464844 224.378906 L 110.671875 218.242188 L 123.78125 218.242188 L 125.984375 224.378906 C 126.679688 226.234375 128.421875 227.507812 130.394531 227.507812 L 158.933594 227.507812 C 169.257812 227.507812 177.84375 219.980469 179.46875 210.136719 C 179.582031 210.136719 179.699219 210.136719 179.816406 210.136719 L 184.457031 210.136719 C 188.285156 210.136719 191.417969 207.011719 191.417969 203.1875 L 191.417969 184.660156 C 191.417969 180.839844 188.285156 177.710938 184.457031 177.710938 Z M 54.519531 205.503906 L 49.878906 205.503906 C 48.601562 205.503906 47.558594 204.460938 47.558594 203.1875 L 47.558594 184.660156 C 47.558594 183.386719 48.601562 182.34375 49.878906 182.34375 L 54.519531 182.34375 Z M 83.988281 157.910156 C 88.976562 154.898438 94.660156 153.394531 100.460938 153.394531 L 133.757812 153.394531 C 139.558594 153.394531 145.242188 155.015625 150.230469 157.910156 L 154.292969 160.34375 L 80.390625 160.34375 Z M 175.175781 206.664062 C 175.175781 215.578125 167.867188 222.875 158.933594 222.875 L 130.277344 222.875 L 127.027344 213.609375 L 107.304688 213.609375 L 104.058594 222.875 L 75.402344 222.875 C 66.46875 222.875 59.160156 215.578125 59.160156 206.664062 L 59.160156 181.1875 C 59.160156 172.269531 66.46875 164.972656 75.402344 164.972656 L 158.933594 164.972656 C 167.867188 164.972656 175.175781 172.269531 175.175781 181.1875 Z M 186.777344 203.1875 C 186.777344 204.460938 185.730469 205.503906 184.457031 205.503906 L 179.816406 205.503906 L 179.816406 182.34375 L 184.457031 182.34375 C 185.730469 182.34375 186.777344 183.386719 186.777344 184.660156 Z M 186.777344 203.1875 " fill-opacity="1" fill-rule="nonzero"/></g><g fill="#000000" fill-opacity="1"><g transform="translate(197.545759, 229.751366)"><g><path d="M 15.125 0.4375 C 12.445312 0.4375 10.085938 -0.09375 8.046875 -1.15625 C 6.015625 -2.21875 4.441406 -3.71875 3.328125 -5.65625 C 2.210938 -7.601562 1.65625 -9.863281 1.65625 -12.4375 L 1.65625 -37.671875 C 1.65625 -37.929688 1.726562 -38.132812 1.875 -38.28125 C 2.019531 -38.425781 2.21875 -38.5 2.46875 -38.5 L 11.171875 -38.5 C 11.421875 -38.5 11.617188 -38.425781 11.765625 -38.28125 C 11.910156 -38.132812 11.984375 -37.929688 11.984375 -37.671875 L 11.984375 -11.9375 C 11.984375 -10.875 12.265625 -10.019531 12.828125 -9.375 C 13.398438 -8.738281 14.164062 -8.421875 15.125 -8.421875 C 16.039062 -8.421875 16.789062 -8.738281 17.375 -9.375 C 17.96875 -10.019531 18.265625 -10.875 18.265625 -11.9375 L 18.265625 -37.671875 C 18.265625 -37.929688 18.335938 -38.132812 18.484375 -38.28125 C 18.628906 -38.425781 18.828125 -38.5 19.078125 -38.5 L 27.78125 -38.5 C 28.03125 -38.5 28.226562 -38.425781 28.375 -38.28125 C 28.519531 -38.132812 28.59375 -37.929688 28.59375 -37.671875 L 28.59375 -12.4375 C 28.59375 -9.863281 28.035156 -7.601562 26.921875 -5.65625 C 25.804688 -3.71875 24.226562 -2.21875 22.1875 -1.15625 C 20.15625 -0.09375 17.800781 0.4375 15.125 0.4375 Z M 15.125 0.4375 "/></g></g></g><g fill="#000000" fill-opacity="1"><g transform="translate(227.738567, 229.751366)"><g><path d="M 26.734375 -30.46875 C 26.734375 -30.207031 26.660156 -30.003906 26.515625 -29.859375 C 26.367188 -29.710938 26.164062 -29.640625 25.90625 -29.640625 L 12.484375 -29.640625 C 12.265625 -29.640625 12.15625 -29.53125 12.15625 -29.3125 L 12.15625 -24.140625 C 12.15625 -23.921875 12.265625 -23.8125 12.484375 -23.8125 L 20.234375 -23.8125 C 20.492188 -23.8125 20.695312 -23.738281 20.84375 -23.59375 C 20.988281 -23.445312 21.0625 -23.242188 21.0625 -22.984375 L 21.0625 -15.84375 C 21.0625 -15.582031 20.988281 -15.378906 20.84375 -15.234375 C 20.695312 -15.085938 20.492188 -15.015625 20.234375 -15.015625 L 12.484375 -15.015625 C 12.265625 -15.015625 12.15625 -14.90625 12.15625 -14.6875 L 12.15625 -0.828125 C 12.15625 -0.566406 12.082031 -0.363281 11.9375 -0.21875 C 11.789062 -0.0703125 11.585938 0 11.328125 0 L 2.640625 0 C 2.378906 0 2.175781 -0.0703125 2.03125 -0.21875 C 1.882812 -0.363281 1.8125 -0.566406 1.8125 -0.828125 L 1.8125 -37.671875 C 1.8125 -37.929688 1.882812 -38.132812 2.03125 -38.28125 C 2.175781 -38.425781 2.378906 -38.5 2.640625 -38.5 L 25.90625 -38.5 C 26.164062 -38.5 26.367188 -38.425781 26.515625 -38.28125 C 26.660156 -38.132812 26.734375 -37.929688 26.734375 -37.671875 Z M 26.734375 -30.46875 "/></g></g></g><g fill="#000000" fill-opacity="1"><g transform="translate(254.851598, 229.751366)"><g><path d="M 15.015625 0.4375 C 12.296875 0.4375 9.910156 -0.09375 7.859375 -1.15625 C 5.804688 -2.21875 4.210938 -3.71875 3.078125 -5.65625 C 1.941406 -7.601562 1.375 -9.863281 1.375 -12.4375 L 1.375 -26.125 C 1.375 -28.6875 1.941406 -30.929688 3.078125 -32.859375 C 4.210938 -34.785156 5.804688 -36.28125 7.859375 -37.34375 C 9.910156 -38.40625 12.296875 -38.9375 15.015625 -38.9375 C 17.691406 -38.9375 20.054688 -38.414062 22.109375 -37.375 C 24.160156 -36.332031 25.753906 -34.894531 26.890625 -33.0625 C 28.023438 -31.226562 28.59375 -29.15625 28.59375 -26.84375 L 28.59375 -25.90625 C 28.59375 -25.644531 28.519531 -25.441406 28.375 -25.296875 C 28.226562 -25.148438 28.03125 -25.078125 27.78125 -25.078125 L 19.078125 -25.078125 C 18.828125 -25.078125 18.628906 -25.148438 18.484375 -25.296875 C 18.335938 -25.441406 18.265625 -25.644531 18.265625 -25.90625 L 18.265625 -26.734375 C 18.265625 -27.679688 17.96875 -28.472656 17.375 -29.109375 C 16.789062 -29.753906 16.003906 -30.078125 15.015625 -30.078125 C 14.023438 -30.078125 13.226562 -29.726562 12.625 -29.03125 C 12.019531 -28.34375 11.71875 -27.429688 11.71875 -26.296875 L 11.71875 -12.265625 C 11.71875 -11.128906 12.054688 -10.203125 12.734375 -9.484375 C 13.410156 -8.773438 14.242188 -8.421875 15.234375 -8.421875 C 16.148438 -8.421875 16.898438 -8.710938 17.484375 -9.296875 C 18.078125 -9.878906 18.375 -10.6875 18.375 -11.71875 L 18.375 -13.359375 C 18.375 -13.578125 18.265625 -13.6875 18.046875 -13.6875 L 15.453125 -13.6875 C 15.191406 -13.6875 14.988281 -13.757812 14.84375 -13.90625 C 14.695312 -14.0625 14.625 -14.265625 14.625 -14.515625 L 14.625 -21.015625 C 14.625 -21.265625 14.695312 -21.460938 14.84375 -21.609375 C 14.988281 -21.753906 15.191406 -21.828125 15.453125 -21.828125 L 27.78125 -21.828125 C 28.03125 -21.828125 28.226562 -21.753906 28.375 -21.609375 C 28.519531 -21.460938 28.59375 -21.265625 28.59375 -21.015625 L 28.59375 -12.15625 C 28.59375 -9.664062 28.023438 -7.460938 26.890625 -5.546875 C 25.753906 -3.640625 24.160156 -2.164062 22.109375 -1.125 C 20.054688 -0.0820312 17.691406 0.4375 15.015625 0.4375 Z M 15.015625 0.4375 "/></g></g></g><g fill="#000000" fill-opacity="1"><g transform="translate(195.348653, 187.998607)"><g><path d="M 24.09375 -38.0625 C 24.238281 -38.351562 24.492188 -38.5 24.859375 -38.5 L 31.234375 -38.5 C 31.421875 -38.5 31.578125 -38.429688 31.703125 -38.296875 C 31.835938 -38.171875 31.90625 -38.019531 31.90625 -37.84375 L 31.90625 -0.65625 C 31.90625 -0.476562 31.835938 -0.320312 31.703125 -0.1875 C 31.578125 -0.0625 31.421875 0 31.234375 0 L 24.8125 0 C 24.625 0 24.460938 -0.0625 24.328125 -0.1875 C 24.203125 -0.320312 24.140625 -0.476562 24.140625 -0.65625 L 24.140625 -25.078125 C 24.140625 -25.222656 24.101562 -25.304688 24.03125 -25.328125 C 23.957031 -25.347656 23.882812 -25.300781 23.8125 -25.1875 L 18.75 -16.828125 C 18.601562 -16.535156 18.347656 -16.390625 17.984375 -16.390625 L 16.71875 -16.390625 C 16.351562 -16.390625 16.097656 -16.535156 15.953125 -16.828125 L 10.890625 -25.1875 C 10.816406 -25.300781 10.742188 -25.347656 10.671875 -25.328125 C 10.597656 -25.304688 10.5625 -25.222656 10.5625 -25.078125 L 10.5625 -0.65625 C 10.5625 -0.476562 10.492188 -0.320312 10.359375 -0.1875 C 10.234375 -0.0625 10.082031 0 9.90625 0 L 3.46875 0 C 3.28125 0 3.125 -0.0625 3 -0.1875 C 2.875 -0.320312 2.8125 -0.476562 2.8125 -0.65625 L 2.8125 -37.84375 C 2.8125 -38.019531 2.875 -38.171875 3 -38.296875 C 3.125 -38.429688 3.28125 -38.5 3.46875 -38.5 L 9.84375 -38.5 C 10.207031 -38.5 10.460938 -38.351562 10.609375 -38.0625 L 17.21875 -27.21875 C 17.320312 -27 17.429688 -27 17.546875 -27.21875 Z M 24.09375 -38.0625 "/></g></g></g><g fill="#000000" fill-opacity="1"><g transform="translate(230.051132, 187.998607)"><g><path d="M 26.34375 -32.5 C 26.34375 -32.320312 26.273438 -32.164062 26.140625 -32.03125 C 26.015625 -31.90625 25.863281 -31.84375 25.6875 -31.84375 L 10.9375 -31.84375 C 10.757812 -31.84375 10.671875 -31.75 10.671875 -31.5625 L 10.671875 -22.984375 C 10.671875 -22.804688 10.757812 -22.71875 10.9375 -22.71875 L 20.125 -22.71875 C 20.3125 -22.71875 20.46875 -22.648438 20.59375 -22.515625 C 20.726562 -22.390625 20.796875 -22.238281 20.796875 -22.0625 L 20.796875 -16.71875 C 20.796875 -16.53125 20.726562 -16.375 20.59375 -16.25 C 20.46875 -16.125 20.3125 -16.0625 20.125 -16.0625 L 10.9375 -16.0625 C 10.757812 -16.0625 10.671875 -15.96875 10.671875 -15.78125 L 10.671875 -6.9375 C 10.671875 -6.75 10.757812 -6.65625 10.9375 -6.65625 L 25.6875 -6.65625 C 25.863281 -6.65625 26.015625 -6.585938 26.140625 -6.453125 C 26.273438 -6.328125 26.34375 -6.175781 26.34375 -6 L 26.34375 -0.65625 C 26.34375 -0.476562 26.273438 -0.320312 26.140625 -0.1875 C 26.015625 -0.0625 25.863281 0 25.6875 0 L 3.578125 0 C 3.390625 0 3.234375 -0.0625 3.109375 -0.1875 C 2.984375 -0.320312 2.921875 -0.476562 2.921875 -0.65625 L 2.921875 -37.84375 C 2.921875 -38.019531 2.984375 -38.171875 3.109375 -38.296875 C 3.234375 -38.429688 3.390625 -38.5 3.578125 -38.5 L 25.6875 -38.5 C 25.863281 -38.5 26.015625 -38.429688 26.140625 -38.296875 C 26.273438 -38.171875 26.34375 -38.019531 26.34375 -37.84375 Z M 26.34375 -32.5 "/></g></g></g><g fill="#000000" fill-opacity="1"><g transform="translate(258.154089, 187.998607)"><g><path d="M 26.84375 -38.5 C 27.019531 -38.5 27.171875 -38.429688 27.296875 -38.296875 C 27.429688 -38.171875 27.5 -38.019531 27.5 -37.84375 L 27.5 -32.453125 C 27.5 -32.265625 27.429688 -32.109375 27.296875 -31.984375 C 27.171875 -31.859375 27.019531 -31.796875 26.84375 -31.796875 L 18.484375 -31.796875 C 18.296875 -31.796875 18.203125 -31.703125 18.203125 -31.515625 L 18.203125 -0.65625 C 18.203125 -0.476562 18.132812 -0.320312 18 -0.1875 C 17.875 -0.0625 17.722656 0 17.546875 0 L 11.109375 0 C 10.921875 0 10.765625 -0.0625 10.640625 -0.1875 C 10.515625 -0.320312 10.453125 -0.476562 10.453125 -0.65625 L 10.453125 -31.515625 C 10.453125 -31.703125 10.359375 -31.796875 10.171875 -31.796875 L 2.09375 -31.796875 C 1.90625 -31.796875 1.75 -31.859375 1.625 -31.984375 C 1.5 -32.109375 1.4375 -32.265625 1.4375 -32.453125 L 1.4375 -37.84375 C 1.4375 -38.019531 1.5 -38.171875 1.625 -38.296875 C 1.75 -38.429688 1.90625 -38.5 2.09375 -38.5 Z M 26.84375 -38.5 "/></g></g></g><g fill="#000000" fill-opacity="1"><g transform="translate(287.081993, 187.998607)"><g><path d="M 23.265625 0 C 22.859375 0 22.601562 -0.179688 22.5 -0.546875 L 21.234375 -5.9375 C 21.191406 -6.082031 21.097656 -6.15625 20.953125 -6.15625 L 10.671875 -6.15625 C 10.523438 -6.15625 10.429688 -6.082031 10.390625 -5.9375 L 9.125 -0.546875 C 9.019531 -0.179688 8.785156 0 8.421875 0 L 1.765625 0 C 1.285156 0 1.097656 -0.238281 1.203125 -0.71875 L 11.109375 -37.953125 C 11.222656 -38.316406 11.476562 -38.5 11.875 -38.5 L 19.859375 -38.5 C 20.253906 -38.5 20.507812 -38.316406 20.625 -37.953125 L 30.53125 -0.71875 L 30.578125 -0.5 C 30.578125 -0.164062 30.375 0 29.96875 0 Z M 11.875 -12.484375 C 11.84375 -12.367188 11.863281 -12.285156 11.9375 -12.234375 C 12.007812 -12.179688 12.082031 -12.15625 12.15625 -12.15625 L 19.421875 -12.15625 C 19.492188 -12.15625 19.566406 -12.179688 19.640625 -12.234375 C 19.710938 -12.285156 19.726562 -12.367188 19.6875 -12.484375 L 15.890625 -28.4375 C 15.859375 -28.582031 15.804688 -28.65625 15.734375 -28.65625 C 15.660156 -28.65625 15.601562 -28.582031 15.5625 -28.4375 Z M 11.875 -12.484375 "/></g></g></g></svg>