<svg width="3078" height="880" viewBox="0 0 3078 880" fill="none" xmlns="http://www.w3.org/2000/svg">
<g clip-path="url(#clip0_1_2)">
<path d="M1035.41 168.273H1096.09L1160.18 324.636H1162.91L1227 168.273H1287.68V401H1239.96V249.523H1238.02L1177.8 399.864H1145.3L1085.07 248.955H1083.14V401H1035.41V168.273ZM1328.22 401V168.273H1485.04V208.841H1377.43V264.295H1476.97V304.864H1377.43V360.432H1485.5V401H1328.22ZM1515.3 208.841V168.273H1706.43V208.841H1635.18V401H1586.55V208.841H1515.3ZM1749.59 401H1696.86L1777.2 168.273H1840.61L1920.84 401H1868.11L1809.81 221.455H1808L1749.59 401ZM1746.29 309.523H1870.84V347.932H1746.29V309.523ZM1961.83 168.273L2018.08 345.091H2020.24L2076.6 168.273H2131.15L2050.92 401H1987.51L1907.17 168.273H1961.83ZM2159.16 401V168.273H2315.98V208.841H2208.37V264.295H2307.91V304.864H2208.37V360.432H2316.43V401H2159.16ZM2355.1 401V168.273H2446.92C2464.49 168.273 2479.49 171.417 2491.92 177.705C2504.42 183.917 2513.92 192.742 2520.44 204.182C2527.03 215.545 2530.33 228.917 2530.33 244.295C2530.33 259.75 2526.99 273.045 2520.33 284.182C2513.66 295.242 2504 303.727 2491.35 309.636C2478.77 315.545 2463.55 318.5 2445.67 318.5H2384.19V278.955H2437.71C2447.11 278.955 2454.91 277.667 2461.12 275.091C2467.33 272.515 2471.95 268.652 2474.98 263.5C2478.09 258.348 2479.64 251.947 2479.64 244.295C2479.64 236.568 2478.09 230.053 2474.98 224.75C2471.95 219.447 2467.3 215.432 2461.01 212.705C2454.8 209.902 2446.95 208.5 2437.48 208.5H2404.3V401H2355.1ZM2480.78 295.091L2538.62 401H2484.3L2427.71 295.091H2480.78ZM2691.35 235.205C2690.44 226.038 2686.54 218.917 2679.64 213.841C2672.75 208.765 2663.39 206.227 2651.58 206.227C2643.55 206.227 2636.76 207.364 2631.23 209.636C2625.7 211.833 2621.46 214.902 2618.51 218.841C2615.63 222.78 2614.19 227.25 2614.19 232.25C2614.04 236.417 2614.91 240.053 2616.8 243.159C2618.77 246.265 2621.46 248.955 2624.87 251.227C2628.28 253.424 2632.22 255.356 2636.69 257.023C2641.16 258.614 2645.93 259.977 2651.01 261.114L2671.92 266.114C2682.07 268.386 2691.39 271.417 2699.87 275.205C2708.36 278.992 2715.7 283.652 2721.92 289.182C2728.13 294.712 2732.94 301.227 2736.35 308.727C2739.83 316.227 2741.61 324.826 2741.69 334.523C2741.61 348.765 2737.98 361.114 2730.78 371.568C2723.66 381.947 2713.36 390.015 2699.87 395.773C2686.46 401.455 2670.29 404.295 2651.35 404.295C2632.56 404.295 2616.2 401.417 2602.26 395.659C2588.39 389.902 2577.56 381.379 2569.76 370.091C2562.03 358.727 2557.98 344.674 2557.6 327.932H2605.21C2605.74 335.735 2607.98 342.25 2611.92 347.477C2615.93 352.629 2621.27 356.53 2627.94 359.182C2634.68 361.758 2642.3 363.045 2650.78 363.045C2659.11 363.045 2666.35 361.833 2672.48 359.409C2678.7 356.985 2683.51 353.614 2686.92 349.295C2690.33 344.977 2692.03 340.015 2692.03 334.409C2692.03 329.182 2690.48 324.788 2687.37 321.227C2684.34 317.667 2679.87 314.636 2673.96 312.136C2668.13 309.636 2660.97 307.364 2652.48 305.318L2627.14 298.955C2607.52 294.182 2592.03 286.72 2580.67 276.568C2569.3 266.417 2563.66 252.742 2563.73 235.545C2563.66 221.455 2567.41 209.144 2574.98 198.614C2582.64 188.083 2593.13 179.864 2606.46 173.955C2619.8 168.045 2634.95 165.091 2651.92 165.091C2669.19 165.091 2684.26 168.045 2697.14 173.955C2710.1 179.864 2720.17 188.083 2727.37 198.614C2734.57 209.144 2738.28 221.341 2738.51 235.205H2691.35ZM2988.65 284.636C2988.65 310.015 2983.84 331.606 2974.22 349.409C2964.67 367.212 2951.64 380.811 2935.13 390.205C2918.69 399.523 2900.2 404.182 2879.67 404.182C2858.99 404.182 2840.43 399.485 2823.99 390.091C2807.55 380.697 2794.56 367.098 2785.01 349.295C2775.47 331.492 2770.69 309.939 2770.69 284.636C2770.69 259.258 2775.47 237.667 2785.01 219.864C2794.56 202.061 2807.55 188.5 2823.99 179.182C2840.43 169.788 2858.99 165.091 2879.67 165.091C2900.2 165.091 2918.69 169.788 2935.13 179.182C2951.64 188.5 2964.67 202.061 2974.22 219.864C2983.84 237.667 2988.65 259.258 2988.65 284.636ZM2938.76 284.636C2938.76 268.197 2936.3 254.333 2931.38 243.045C2926.53 231.758 2919.67 223.197 2910.81 217.364C2901.94 211.53 2891.57 208.614 2879.67 208.614C2867.78 208.614 2857.4 211.53 2848.54 217.364C2839.67 223.197 2832.78 231.758 2827.85 243.045C2823.01 254.333 2820.58 268.197 2820.58 284.636C2820.58 301.076 2823.01 314.939 2827.85 326.227C2832.78 337.515 2839.67 346.076 2848.54 351.909C2857.4 357.742 2867.78 360.659 2879.67 360.659C2891.57 360.659 2901.94 357.742 2910.81 351.909C2919.67 346.076 2926.53 337.515 2931.38 326.227C2936.3 314.939 2938.76 301.076 2938.76 284.636Z" fill="white"/>
<path d="M1200.78 478.273H1222.03V632.364C1222.03 648.197 1218.32 662.364 1210.89 674.864C1203.47 687.288 1193.13 697.098 1179.87 704.295C1166.69 711.417 1151.35 714.977 1133.85 714.977C1116.42 714.977 1101.08 711.379 1087.83 704.182C1074.57 696.985 1064.23 687.174 1056.8 674.75C1049.38 662.326 1045.67 648.197 1045.67 632.364V478.273H1066.92V630.886C1066.92 643.235 1069.68 654.258 1075.21 663.955C1080.74 673.576 1088.51 681.152 1098.51 686.682C1108.58 692.212 1120.36 694.977 1133.85 694.977C1147.33 694.977 1159.11 692.212 1169.19 686.682C1179.26 681.152 1187.03 673.576 1192.48 663.955C1198.01 654.258 1200.78 643.235 1200.78 630.886V478.273ZM1283.79 711V478.273H1418.45V497.364H1305.04V584.977H1407.88V604.068H1305.04V711H1283.79ZM1632.31 551C1630.19 543.273 1627.09 536.038 1623 529.295C1618.9 522.477 1613.83 516.53 1607.77 511.455C1601.78 506.303 1594.85 502.288 1586.97 499.409C1579.17 496.53 1570.46 495.091 1560.84 495.091C1545.69 495.091 1532.12 499.03 1520.15 506.909C1508.19 514.788 1498.72 526.152 1491.75 541C1484.85 555.848 1481.4 573.727 1481.4 594.636C1481.4 615.47 1484.89 633.311 1491.86 648.159C1498.83 663.008 1508.37 674.409 1520.5 682.364C1532.69 690.242 1546.63 694.182 1562.31 694.182C1576.63 694.182 1589.28 691 1600.27 684.636C1611.25 678.273 1619.81 669.182 1625.95 657.364C1632.16 645.545 1635.19 631.492 1635.04 615.205L1641.86 617.364H1567.31V598.273H1655.72V617.364C1655.72 637.212 1651.71 654.371 1643.68 668.841C1635.65 683.311 1624.62 694.485 1610.61 702.364C1596.59 710.242 1580.5 714.182 1562.31 714.182C1542.01 714.182 1524.25 709.295 1509.02 699.523C1493.79 689.674 1481.94 675.811 1473.45 657.932C1465.04 639.977 1460.84 618.879 1460.84 594.636C1460.84 576.379 1463.26 559.902 1468.11 545.205C1472.96 530.508 1479.81 517.932 1488.68 507.477C1497.62 497.023 1508.19 489.03 1520.38 483.5C1532.58 477.894 1546.06 475.091 1560.84 475.091C1573.56 475.091 1585.19 477.098 1595.72 481.114C1606.33 485.129 1615.65 490.659 1623.68 497.705C1631.78 504.674 1638.41 512.742 1643.56 521.909C1648.79 531 1652.31 540.697 1654.13 551H1632.31Z" fill="white"/>
<mask id="mask0_1_2" style="mask-type:luminance" maskUnits="userSpaceOnUse" x="58" y="172" width="895" height="476">
<path d="M58.0989 172.651H952.099V647.651H58.0989V172.651Z" fill="white"/>
</mask>
<g mask="url(#mask0_1_2)">
<path d="M909.901 347.193H881.974C881.276 347.193 880.578 347.193 879.88 347.193C872.198 301.115 839.385 263.411 796.094 248.75L718.599 204.068C684.385 183.818 645.286 172.651 604.792 172.651H405.115C365.318 172.651 325.521 183.818 291.307 204.068L290.609 204.766L229.87 244.562C178.901 254.339 139.104 295.531 130.026 347.193C129.328 347.193 128.63 347.193 127.932 347.193H100.005C76.9635 347.193 58.1146 366.047 58.1146 389.089V500.797C58.1146 523.839 76.9635 542.688 100.005 542.688H127.932C128.63 542.688 129.328 542.688 130.026 542.688C139.802 602.031 191.469 647.417 253.604 647.417H426.057C437.927 647.417 448.401 639.734 452.589 628.563L465.854 591.563H544.75L558.016 628.563C562.203 639.734 572.677 647.417 584.547 647.417H756.297C818.438 647.417 870.104 602.031 879.88 542.688C880.578 542.688 881.276 542.688 881.974 542.688H909.901C932.938 542.688 951.792 523.839 951.792 500.797V389.089C951.792 366.047 932.938 347.193 909.901 347.193ZM127.932 514.76H100.005C92.3229 514.76 86.0416 508.474 86.0416 500.797V389.089C86.0416 381.406 92.3229 375.125 100.005 375.125H127.932V514.76ZM305.271 227.807C335.292 209.651 369.505 200.578 404.411 200.578H604.792C639.703 200.578 673.911 210.349 703.937 227.807L728.37 242.469H283.63L305.271 227.807ZM854.047 521.74C854.047 575.5 810.057 619.49 756.297 619.49H583.849L564.297 563.63H445.609L426.057 619.49H253.604C199.844 619.49 155.859 575.5 155.859 521.74V368.141C155.859 314.38 199.844 270.396 253.604 270.396H756.297C810.057 270.396 854.047 314.38 854.047 368.141V521.74ZM923.865 500.797C923.865 508.474 917.578 514.76 909.901 514.76H881.974V375.125H909.901C917.578 375.125 923.865 381.406 923.865 389.089V500.797Z" fill="white"/>
</g>
</g>
<defs>
<clipPath id="clip0_1_2">
<rect width="3078" height="880" fill="white"/>
</clipPath>
</defs>
</svg>
