<svg xmlns="http://www.w3.org/2000/svg" xmlns:xlink="http://www.w3.org/1999/xlink" width="1080" zoomAndPan="magnify" viewBox="0 0 810 809.999993" height="1080" preserveAspectRatio="xMidYMid meet" version="1.0"><defs><g/><clipPath id="abc365a58e"><path d="M 165.867188 105.785156 L 644.367188 105.785156 L 644.367188 360.035156 L 165.867188 360.035156 Z M 165.867188 105.785156 " clip-rule="nonzero"/></clipPath></defs><g clip-path="url(#abc365a58e)"><path fill="#000000" d="M 621.933594 199.257812 L 606.980469 199.257812 C 606.605469 199.257812 606.234375 199.257812 605.859375 199.257812 C 601.746094 174.582031 584.175781 154.390625 561 146.539062 L 519.507812 122.609375 C 501.1875 111.769531 480.253906 105.785156 458.574219 105.785156 L 351.660156 105.785156 C 330.351562 105.785156 309.042969 111.769531 290.726562 122.609375 C 290.726562 122.609375 290.355469 122.984375 290.355469 122.984375 L 257.832031 144.296875 C 230.542969 149.53125 209.234375 171.589844 204.375 199.257812 C 204 199.257812 203.625 199.257812 203.253906 199.257812 L 188.300781 199.257812 C 175.964844 199.257812 165.871094 209.355469 165.871094 221.691406 L 165.871094 281.515625 C 165.871094 293.855469 175.964844 303.949219 188.300781 303.949219 L 203.253906 303.949219 C 203.625 303.949219 204 303.949219 204.375 303.949219 C 209.609375 335.730469 237.269531 360.035156 270.539062 360.035156 L 362.875 360.035156 C 369.230469 360.035156 374.835938 355.921875 377.082031 349.941406 L 384.183594 330.125 L 426.425781 330.125 L 433.527344 349.941406 C 435.769531 355.921875 441.378906 360.035156 447.734375 360.035156 L 539.691406 360.035156 C 572.960938 360.035156 600.625 335.730469 605.859375 303.949219 C 606.234375 303.949219 606.605469 303.949219 606.980469 303.949219 L 621.933594 303.949219 C 634.269531 303.949219 644.363281 293.855469 644.363281 281.515625 L 644.363281 221.691406 C 644.363281 209.355469 634.269531 199.257812 621.933594 199.257812 Z M 203.253906 288.996094 L 188.300781 288.996094 C 184.1875 288.996094 180.824219 285.628906 180.824219 281.515625 L 180.824219 221.691406 C 180.824219 217.582031 184.1875 214.214844 188.300781 214.214844 L 203.253906 214.214844 Z M 298.203125 135.324219 C 314.277344 125.601562 332.59375 120.742188 351.285156 120.742188 L 458.574219 120.742188 C 477.265625 120.742188 495.582031 125.976562 511.65625 135.324219 L 524.738281 143.175781 L 286.617188 143.175781 Z M 592.027344 292.734375 C 592.027344 321.523438 568.476562 345.078125 539.691406 345.078125 L 447.359375 345.078125 L 436.890625 315.167969 L 373.34375 315.167969 L 362.875 345.078125 L 270.539062 345.078125 C 241.757812 345.078125 218.207031 321.523438 218.207031 292.734375 L 218.207031 210.476562 C 218.207031 181.6875 241.757812 158.128906 270.539062 158.128906 L 539.691406 158.128906 C 568.476562 158.128906 592.027344 181.6875 592.027344 210.476562 Z M 629.410156 281.515625 C 629.410156 285.628906 626.046875 288.996094 621.933594 288.996094 L 606.980469 288.996094 L 606.980469 214.214844 L 621.933594 214.214844 C 626.046875 214.214844 629.410156 217.582031 629.410156 221.691406 Z M 629.410156 281.515625 " fill-opacity="1" fill-rule="nonzero"/></g><g fill="#000000" fill-opacity="1"><g transform="translate(182.405957, 551.982115)"><g><path d="M 80.890625 -132.5625 C 81.523438 -133.84375 82.675781 -134.484375 84.34375 -134.484375 L 114.3125 -134.484375 C 115.207031 -134.484375 115.910156 -134.226562 116.421875 -133.71875 C 116.941406 -133.207031 117.203125 -132.503906 117.203125 -131.609375 L 117.203125 -2.875 C 117.203125 -1.976562 116.941406 -1.273438 116.421875 -0.765625 C 115.910156 -0.253906 115.207031 0 114.3125 0 L 83.953125 0 C 83.054688 0 82.351562 -0.253906 81.84375 -0.765625 C 81.332031 -1.273438 81.078125 -1.976562 81.078125 -2.875 L 81.078125 -76.65625 C 81.078125 -77.164062 80.914062 -77.484375 80.59375 -77.609375 C 80.269531 -77.742188 79.984375 -77.554688 79.734375 -77.046875 L 67.4375 -56.671875 C 66.664062 -55.390625 65.515625 -54.75 63.984375 -54.75 L 58.984375 -54.75 C 57.441406 -54.75 56.289062 -55.390625 55.53125 -56.671875 L 43.234375 -77.234375 C 42.972656 -77.742188 42.679688 -77.9375 42.359375 -77.8125 C 42.046875 -77.6875 41.890625 -77.363281 41.890625 -76.84375 L 41.890625 -2.875 C 41.890625 -1.976562 41.628906 -1.273438 41.109375 -0.765625 C 40.597656 -0.253906 39.894531 0 39 0 L 8.640625 0 C 7.742188 0 7.039062 -0.253906 6.53125 -0.765625 C 6.019531 -1.273438 5.765625 -1.976562 5.765625 -2.875 L 5.765625 -131.609375 C 5.765625 -132.503906 6.019531 -133.207031 6.53125 -133.71875 C 7.039062 -134.226562 7.742188 -134.484375 8.640625 -134.484375 L 38.609375 -134.484375 C 40.148438 -134.484375 41.304688 -133.84375 42.078125 -132.5625 L 60.90625 -100.671875 C 61.15625 -100.285156 61.441406 -100.09375 61.765625 -100.09375 C 62.085938 -100.09375 62.3125 -100.285156 62.4375 -100.671875 Z M 80.890625 -132.5625 "/></g></g></g><g fill="#000000" fill-opacity="1"><g transform="translate(305.361451, 551.982115)"><g><path d="M 93.375 -106.4375 C 93.375 -105.539062 93.113281 -104.835938 92.59375 -104.328125 C 92.082031 -103.816406 91.378906 -103.5625 90.484375 -103.5625 L 43.609375 -103.5625 C 42.835938 -103.5625 42.453125 -103.175781 42.453125 -102.40625 L 42.453125 -84.34375 C 42.453125 -83.570312 42.835938 -83.1875 43.609375 -83.1875 L 70.703125 -83.1875 C 71.597656 -83.1875 72.300781 -82.929688 72.8125 -82.421875 C 73.320312 -81.910156 73.578125 -81.207031 73.578125 -80.3125 L 73.578125 -55.328125 C 73.578125 -54.429688 73.320312 -53.726562 72.8125 -53.21875 C 72.300781 -52.707031 71.597656 -52.453125 70.703125 -52.453125 L 43.609375 -52.453125 C 42.835938 -52.453125 42.453125 -52.066406 42.453125 -51.296875 L 42.453125 -32.078125 C 42.453125 -31.316406 42.835938 -30.9375 43.609375 -30.9375 L 90.484375 -30.9375 C 91.378906 -30.9375 92.082031 -30.675781 92.59375 -30.15625 C 93.113281 -29.644531 93.375 -28.941406 93.375 -28.046875 L 93.375 -2.875 C 93.375 -1.976562 93.113281 -1.273438 92.59375 -0.765625 C 92.082031 -0.253906 91.378906 0 90.484375 0 L 9.21875 0 C 8.320312 0 7.617188 -0.253906 7.109375 -0.765625 C 6.597656 -1.273438 6.34375 -1.976562 6.34375 -2.875 L 6.34375 -131.609375 C 6.34375 -132.503906 6.597656 -133.207031 7.109375 -133.71875 C 7.617188 -134.226562 8.320312 -134.484375 9.21875 -134.484375 L 90.484375 -134.484375 C 91.378906 -134.484375 92.082031 -134.226562 92.59375 -133.71875 C 93.113281 -133.207031 93.375 -132.503906 93.375 -131.609375 Z M 93.375 -106.4375 "/></g></g></g><g fill="#000000" fill-opacity="1"><g transform="translate(402.765253, 551.982115)"><g><path d="M 98.75 -134.484375 C 99.644531 -134.484375 100.347656 -134.226562 100.859375 -133.71875 C 101.378906 -133.207031 101.640625 -132.503906 101.640625 -131.609375 L 101.640625 -106.4375 C 101.640625 -105.539062 101.378906 -104.835938 100.859375 -104.328125 C 100.347656 -103.816406 99.644531 -103.5625 98.75 -103.5625 L 71.46875 -103.5625 C 70.695312 -103.5625 70.3125 -103.175781 70.3125 -102.40625 L 70.3125 -2.875 C 70.3125 -1.976562 70.054688 -1.273438 69.546875 -0.765625 C 69.035156 -0.253906 68.332031 0 67.4375 0 L 37.078125 0 C 36.179688 0 35.476562 -0.253906 34.96875 -0.765625 C 34.457031 -1.273438 34.203125 -1.976562 34.203125 -2.875 L 34.203125 -102.40625 C 34.203125 -103.175781 33.816406 -103.5625 33.046875 -103.5625 L 6.34375 -103.5625 C 5.445312 -103.5625 4.738281 -103.816406 4.21875 -104.328125 C 3.707031 -104.835938 3.453125 -105.539062 3.453125 -106.4375 L 3.453125 -131.609375 C 3.453125 -132.503906 3.707031 -133.207031 4.21875 -133.71875 C 4.738281 -134.226562 5.445312 -134.484375 6.34375 -134.484375 Z M 98.75 -134.484375 "/></g></g></g><g fill="#000000" fill-opacity="1"><g transform="translate(507.853797, 551.982115)"><g><path d="M 81.65625 0 C 79.863281 0 78.773438 -0.832031 78.390625 -2.5 L 75.125 -17.296875 C 74.863281 -17.929688 74.476562 -18.25 73.96875 -18.25 L 45.15625 -18.25 C 44.632812 -18.25 44.25 -17.929688 44 -17.296875 L 40.921875 -2.5 C 40.535156 -0.832031 39.445312 0 37.65625 0 L 6.140625 0 C 5.117188 0 4.382812 -0.285156 3.9375 -0.859375 C 3.488281 -1.441406 3.394531 -2.242188 3.65625 -3.265625 L 37.84375 -131.984375 C 38.226562 -133.648438 39.253906 -134.484375 40.921875 -134.484375 L 78.96875 -134.484375 C 80.632812 -134.484375 81.65625 -133.648438 82.03125 -131.984375 L 116.046875 -3.265625 C 116.171875 -3.003906 116.234375 -2.6875 116.234375 -2.3125 C 116.234375 -0.769531 115.335938 0 113.546875 0 Z M 50.140625 -46.875 C 50.140625 -46.238281 50.523438 -45.921875 51.296875 -45.921875 L 67.625 -45.921875 C 68.519531 -45.921875 68.90625 -46.367188 68.78125 -47.265625 L 60.140625 -87.21875 C 60.003906 -87.738281 59.742188 -88 59.359375 -88 C 58.984375 -88 58.726562 -87.738281 58.59375 -87.21875 L 50.140625 -47.265625 Z M 50.140625 -46.875 "/></g></g></g><g fill="#000000" fill-opacity="1"><g transform="translate(252.536479, 707.133823)"><g><path d="M 52.828125 1.53125 C 43.484375 1.53125 35.253906 -0.320312 28.140625 -4.03125 C 21.035156 -7.75 15.53125 -13 11.625 -19.78125 C 7.71875 -26.570312 5.765625 -34.453125 5.765625 -43.421875 L 5.765625 -131.609375 C 5.765625 -132.503906 6.019531 -133.207031 6.53125 -133.71875 C 7.039062 -134.226562 7.742188 -134.484375 8.640625 -134.484375 L 39 -134.484375 C 39.894531 -134.484375 40.597656 -134.226562 41.109375 -133.71875 C 41.628906 -133.207031 41.890625 -132.503906 41.890625 -131.609375 L 41.890625 -41.6875 C 41.890625 -37.976562 42.878906 -35 44.859375 -32.75 C 46.847656 -30.507812 49.503906 -29.390625 52.828125 -29.390625 C 56.035156 -29.390625 58.660156 -30.507812 60.703125 -32.75 C 62.753906 -35 63.78125 -37.976562 63.78125 -41.6875 L 63.78125 -131.609375 C 63.78125 -132.503906 64.035156 -133.207031 64.546875 -133.71875 C 65.066406 -134.226562 65.773438 -134.484375 66.671875 -134.484375 L 97.015625 -134.484375 C 97.921875 -134.484375 98.628906 -134.226562 99.140625 -133.71875 C 99.648438 -133.207031 99.90625 -132.503906 99.90625 -131.609375 L 99.90625 -43.421875 C 99.90625 -34.453125 97.953125 -26.570312 94.046875 -19.78125 C 90.140625 -13 84.628906 -7.75 77.515625 -4.03125 C 70.410156 -0.320312 62.179688 1.53125 52.828125 1.53125 Z M 52.828125 1.53125 "/></g></g></g><g fill="#000000" fill-opacity="1"><g transform="translate(358.009232, 707.133823)"><g><path d="M 93.375 -106.4375 C 93.375 -105.539062 93.113281 -104.835938 92.59375 -104.328125 C 92.082031 -103.816406 91.378906 -103.5625 90.484375 -103.5625 L 43.609375 -103.5625 C 42.835938 -103.5625 42.453125 -103.175781 42.453125 -102.40625 L 42.453125 -84.34375 C 42.453125 -83.570312 42.835938 -83.1875 43.609375 -83.1875 L 70.703125 -83.1875 C 71.597656 -83.1875 72.300781 -82.929688 72.8125 -82.421875 C 73.320312 -81.910156 73.578125 -81.207031 73.578125 -80.3125 L 73.578125 -55.328125 C 73.578125 -54.429688 73.320312 -53.726562 72.8125 -53.21875 C 72.300781 -52.707031 71.597656 -52.453125 70.703125 -52.453125 L 43.609375 -52.453125 C 42.835938 -52.453125 42.453125 -52.066406 42.453125 -51.296875 L 42.453125 -2.875 C 42.453125 -1.976562 42.195312 -1.273438 41.6875 -0.765625 C 41.175781 -0.253906 40.472656 0 39.578125 0 L 9.21875 0 C 8.320312 0 7.617188 -0.253906 7.109375 -0.765625 C 6.597656 -1.273438 6.34375 -1.976562 6.34375 -2.875 L 6.34375 -131.609375 C 6.34375 -132.503906 6.597656 -133.207031 7.109375 -133.71875 C 7.617188 -134.226562 8.320312 -134.484375 9.21875 -134.484375 L 90.484375 -134.484375 C 91.378906 -134.484375 92.082031 -134.226562 92.59375 -133.71875 C 93.113281 -133.207031 93.375 -132.503906 93.375 -131.609375 Z M 93.375 -106.4375 "/></g></g></g><g fill="#000000" fill-opacity="1"><g transform="translate(452.723377, 707.133823)"><g><path d="M 52.453125 1.53125 C 42.972656 1.53125 34.644531 -0.320312 27.46875 -4.03125 C 20.300781 -7.75 14.726562 -13 10.75 -19.78125 C 6.78125 -26.570312 4.796875 -34.453125 4.796875 -43.421875 L 4.796875 -91.265625 C 4.796875 -100.222656 6.78125 -108.0625 10.75 -114.78125 C 14.726562 -121.507812 20.300781 -126.734375 27.46875 -130.453125 C 34.644531 -134.171875 42.972656 -136.03125 52.453125 -136.03125 C 61.796875 -136.03125 70.054688 -134.203125 77.234375 -130.546875 C 84.410156 -126.898438 89.984375 -121.875 93.953125 -115.46875 C 97.921875 -109.0625 99.90625 -101.820312 99.90625 -93.75 L 99.90625 -90.484375 C 99.90625 -89.585938 99.648438 -88.882812 99.140625 -88.375 C 98.628906 -87.863281 97.921875 -87.609375 97.015625 -87.609375 L 66.671875 -87.609375 C 65.773438 -87.609375 65.066406 -87.863281 64.546875 -88.375 C 64.035156 -88.882812 63.78125 -89.585938 63.78125 -90.484375 L 63.78125 -93.375 C 63.78125 -96.707031 62.753906 -99.492188 60.703125 -101.734375 C 58.660156 -103.972656 55.910156 -105.09375 52.453125 -105.09375 C 48.992188 -105.09375 46.207031 -103.875 44.09375 -101.4375 C 41.976562 -99.007812 40.921875 -95.804688 40.921875 -91.828125 L 40.921875 -42.84375 C 40.921875 -38.875 42.101562 -35.640625 44.46875 -33.140625 C 46.84375 -30.640625 49.757812 -29.390625 53.21875 -29.390625 C 56.414062 -29.390625 59.039062 -30.414062 61.09375 -32.46875 C 63.144531 -34.519531 64.171875 -37.335938 64.171875 -40.921875 L 64.171875 -46.6875 C 64.171875 -47.457031 63.785156 -47.84375 63.015625 -47.84375 L 53.984375 -47.84375 C 53.085938 -47.84375 52.382812 -48.097656 51.875 -48.609375 C 51.363281 -49.117188 51.109375 -49.820312 51.109375 -50.71875 L 51.109375 -73.390625 C 51.109375 -74.285156 51.363281 -74.988281 51.875 -75.5 C 52.382812 -76.019531 53.085938 -76.28125 53.984375 -76.28125 L 97.015625 -76.28125 C 97.921875 -76.28125 98.628906 -76.019531 99.140625 -75.5 C 99.648438 -74.988281 99.90625 -74.285156 99.90625 -73.390625 L 99.90625 -42.453125 C 99.90625 -33.742188 97.921875 -26.0625 93.953125 -19.40625 C 89.984375 -12.75 84.410156 -7.59375 77.234375 -3.9375 C 70.054688 -0.289062 61.796875 1.53125 52.453125 1.53125 Z M 52.453125 1.53125 "/></g></g></g></svg>